<svg xmlns="http://www.w3.org/2000/svg" width="2048" height="2048" viewBox="0 0 2048 2048" version="1.1">
	<path d="M 249.750 633.744 C 242.188 633.916, 236 634.255, 236 634.497 C 236 634.740, 238.700 641.041, 242 648.500 C 245.300 655.959, 248 662.251, 248 662.482 C 248 662.712, 250.631 668.661, 253.847 675.701 C 257.063 682.740, 260.931 691.650, 262.444 695.500 C 263.957 699.350, 268.345 709.700, 272.195 718.500 C 287.765 754.085, 308.706 802.781, 328.530 849.500 C 332.497 858.850, 345.984 890.125, 358.500 919 C 371.016 947.875, 385.432 981.400, 390.534 993.500 C 395.637 1005.600, 403.165 1023.150, 407.264 1032.500 C 411.363 1041.850, 420.456 1063, 427.471 1079.500 C 434.486 1096, 442.700 1115.119, 445.724 1121.988 C 448.748 1128.856, 453.383 1139.656, 456.023 1145.988 C 458.663 1152.319, 465.399 1168.075, 470.992 1181 C 476.585 1193.925, 491.877 1229.475, 504.975 1260 C 518.073 1290.525, 536.442 1333.275, 545.796 1355 C 555.151 1376.725, 577.419 1428.475, 595.282 1470 C 625.466 1540.168, 638.044 1568.974, 642.552 1578.255 L 644.375 1582.011 733.832 1581.755 L 823.289 1581.500 832.207 1561 C 840.773 1541.307, 851.851 1515.859, 885.316 1439 C 893.817 1419.475, 904.034 1395.963, 908.021 1386.750 C 912.009 1377.537, 915.591 1370, 915.982 1370 C 916.630 1370, 925.385 1387.863, 931.867 1402.411 C 940.859 1422.593, 962.660 1467.825, 963.475 1467.989 C 964.012 1468.098, 967.888 1459.932, 972.089 1449.843 C 981.128 1428.135, 1016.314 1345.030, 1037.977 1294.224 L 1046.196 1274.949 1040.660 1263.224 C 1034.515 1250.210, 1024.990 1229.507, 1012.915 1202.920 L 1004.931 1185.340 1014.585 1163.420 C 1019.895 1151.364, 1027.976 1132.725, 1032.542 1122 C 1037.109 1111.275, 1044.959 1093.050, 1049.987 1081.500 C 1055.015 1069.950, 1065.813 1044.975, 1073.984 1026 C 1082.154 1007.025, 1097.022 972.600, 1107.024 949.500 C 1117.025 926.400, 1127.451 902.100, 1130.192 895.500 C 1132.933 888.900, 1139.468 873.825, 1144.714 862 C 1149.960 850.175, 1157.061 833.750, 1160.494 825.500 C 1163.927 817.250, 1171.336 799.925, 1176.958 787 C 1182.579 774.075, 1190.014 756.750, 1193.478 748.500 C 1196.942 740.250, 1204.391 722.925, 1210.032 710 C 1215.672 697.075, 1222.890 680.200, 1226.071 672.500 C 1229.252 664.800, 1234.326 653.100, 1237.347 646.500 L 1242.839 634.500 1237.170 633.859 C 1229.203 632.957, 1080.743 632.869, 1079.394 633.765 C 1078.785 634.169, 1074.796 642.600, 1070.529 652.500 C 1066.263 662.400, 1056.797 684, 1049.494 700.500 C 1042.191 717, 1032.823 738.375, 1028.676 748 C 1024.529 757.625, 1018.242 772.025, 1014.707 780 C 1004.424 803.193, 979.856 858.212, 972.733 874 C 966.662 887.455, 948.996 927.470, 927.128 977.298 C 922.107 988.737, 918 998.525, 918 999.048 C 918 1001.505, 916.298 999.505, 914.341 994.748 C 913.154 991.862, 906.248 976, 898.996 959.500 C 891.743 943, 881.408 919.375, 876.027 907 C 870.647 894.625, 863.092 877.525, 859.238 869 C 855.384 860.475, 848.316 844.500, 843.531 833.500 C 838.746 822.500, 833.341 810.125, 831.518 806 C 817.207 773.607, 776.195 679.264, 770.659 666 C 768.708 661.325, 764.675 652.100, 761.697 645.500 L 756.283 633.500 675.225 633.500 C 630.643 633.500, 593.881 633.785, 593.533 634.134 C 592.853 634.814, 596.569 644.064, 607.740 669.500 C 611.605 678.300, 622.526 703.725, 632.010 726 C 641.493 748.275, 654.316 778.200, 660.505 792.500 C 666.694 806.800, 675.687 827.725, 680.489 839 C 685.291 850.275, 693.398 869.175, 698.504 881 C 711.643 911.426, 736.966 970.419, 745.507 990.500 C 749.484 999.850, 755.540 1013.800, 758.965 1021.500 C 762.390 1029.200, 768.250 1042.700, 771.987 1051.500 C 781.389 1073.644, 790.530 1094.631, 798.991 1113.500 C 802.936 1122.300, 808.114 1134.225, 810.497 1140 C 812.880 1145.775, 818.693 1159.216, 823.415 1169.870 C 828.137 1180.523, 832 1189.821, 832 1190.533 C 832 1191.244, 827.011 1203.453, 820.913 1217.663 C 814.816 1231.873, 808.785 1246.200, 807.513 1249.500 C 799.940 1269.134, 740.799 1405.932, 739.866 1405.973 C 739.243 1406, 638.063 1178.766, 615.649 1127 C 609.338 1112.425, 596.898 1084.075, 588.004 1064 C 579.110 1043.925, 567.201 1016.925, 561.539 1004 C 555.878 991.075, 548.306 973.975, 544.713 966 C 535.106 944.677, 522.849 916.909, 518.008 905.500 C 515.674 900, 510.720 888.750, 506.998 880.500 C 503.276 872.250, 496.320 856.500, 491.540 845.500 C 486.760 834.500, 478.193 814.925, 472.501 802 C 466.810 789.075, 458.117 769.275, 453.183 758 C 448.249 746.725, 436.686 720.400, 427.486 699.500 C 418.287 678.600, 407.992 655.200, 404.609 647.500 L 398.458 633.500 330.979 633.466 C 293.866 633.447, 257.313 633.572, 249.750 633.744 M 1434.338 634.211 C 1433.272 635.627, 1426.068 652.137, 1405.633 700 C 1393.265 728.969, 1387.409 742.516, 1363.270 798 C 1358.604 808.725, 1352.410 823.125, 1349.505 830 C 1346.601 836.875, 1340.301 851.500, 1335.505 862.500 C 1330.710 873.500, 1323.671 889.925, 1319.863 899 C 1316.055 908.075, 1311.549 918.650, 1309.849 922.500 C 1307.043 928.856, 1294.292 958.289, 1268.259 1018.500 C 1263.028 1030.600, 1253.666 1052.425, 1247.455 1067 C 1241.244 1081.575, 1221.448 1127.700, 1203.463 1169.500 C 1185.478 1211.300, 1164.051 1261.250, 1155.846 1280.500 C 1147.642 1299.750, 1138.711 1320.450, 1136 1326.500 C 1133.289 1332.550, 1125.018 1351.900, 1117.621 1369.500 C 1110.223 1387.100, 1099.359 1412.525, 1093.478 1426 C 1077.201 1463.296, 1032.015 1568.937, 1027.286 1580.752 C 1026.885 1581.753, 1084.253 1581.953, 1313.580 1581.752 L 1600.375 1581.500 1604.140 1572 C 1612.572 1550.722, 1660.330 1427.374, 1660.765 1425.750 C 1661.210 1424.088, 1651.240 1424, 1461.617 1424 C 1351.827 1424, 1262 1423.734, 1262 1423.408 C 1262 1423.082, 1271.970 1399.570, 1284.155 1371.158 C 1296.341 1342.746, 1312.029 1306, 1319.018 1289.500 C 1326.006 1273, 1336.009 1249.600, 1341.245 1237.500 C 1346.481 1225.400, 1358.522 1197.275, 1368.003 1175 C 1377.484 1152.725, 1392.351 1117.850, 1401.039 1097.500 C 1409.728 1077.150, 1418.504 1056.450, 1420.541 1051.500 C 1422.578 1046.550, 1429.101 1031.475, 1435.037 1018 C 1440.973 1004.525, 1447.620 989, 1449.809 983.500 C 1451.997 978, 1459.169 961.125, 1465.748 946 C 1472.326 930.875, 1481.881 908.600, 1486.981 896.500 C 1492.081 884.400, 1499.752 866.400, 1504.028 856.500 C 1508.304 846.600, 1514.394 832.200, 1517.560 824.500 C 1520.727 816.800, 1527.114 801.950, 1531.753 791.500 C 1536.392 781.050, 1541.927 768.151, 1544.052 762.835 C 1547.808 753.441, 1567.912 706.087, 1586.225 663.500 C 1598.267 635.494, 1598.424 635.091, 1597.573 634.239 C 1597.167 633.833, 1560.491 633.370, 1516.072 633.211 C 1451.071 632.979, 1435.120 633.174, 1434.338 634.211" stroke="none" fill="#F4F2EE" fill-rule="evenodd"/>
</svg>